Coordinates
version=1
nRows=18
nColumns=22
inDegrees=yes

Units are S.I. units (second, meters, Newtons, ...)
If the header above contains a line with 'inDegrees', this indicates whether rotational values are in degrees (yes) or radians (no).

endheader
time	pelvis_tilt	pelvis_list	pelvis_rotation	pelvis_tx	pelvis_ty	pelvis_tz	hip_flexion_r	hip_adduction_r	hip_rotation_r	knee_angle_r	ankle_angle_r	subtalar_angle_r	hip_flexion_l	hip_adduction_l	hip_rotation_l	knee_angle_l	ankle_angle_l	subtalar_angle_l	lumbar_extension	lumbar_bending	lumbar_rotation
      0.01000000	      1.98903608	     -0.78516451	      1.94724505	      0.64247540	      1.08164517	     -0.33385594	     -3.75690385	      1.44352979	     -7.74636567	     -9.95284314	     11.52735265	     -3.43846617	     -4.14976455	     -0.79128857	     -1.45407508	    -10.67513819	     13.62565729	      0.33919637	     -2.78941072	     -1.08717953	     -5.80631422
      0.02000000	      1.98338891	     -0.79118039	      1.94616126	      0.64239665	      1.08164605	     -0.33379253	     -3.74315816	      1.45253759	     -7.74607975	     -9.95845444	     11.51820709	     -3.43983828	     -4.13119743	     -0.80048591	     -1.45369371	    -10.69000350	     13.62308461	      0.34287757	     -2.81824122	     -1.07870064	     -5.79924852
      0.03000000	      1.97417631	     -0.79020647	      1.94302534	      0.64234071	      1.08164495	     -0.33371605	     -3.73380508	      1.45511415	     -7.74800785	     -9.95047190	     11.51807433	     -3.43989108	     -4.12099696	     -0.80208426	     -1.45486697	    -10.68376189	     13.62345322	      0.34324510	     -2.84122261	     -1.07841257	     -5.79913416
      0.04000000	      1.96814832	     -0.79433835	      1.94586093	      0.64222145	      1.08165082	     -0.33363654	     -3.71502701	      1.46348857	     -7.74471269	     -9.96133665	     11.50780392	     -3.44133103	     -4.09556655	     -0.81134875	     -1.45817774	    -10.70565394	     13.61738014	      0.34639263	     -2.87993562	     -1.07318952	     -5.78943895
      0.05000000	      1.95801308	     -0.79302526	      1.94216320	      0.64214497	      1.08165171	     -0.33354784	     -3.70369568	      1.46620768	     -7.74719376	     -9.95244881	     11.50758343	     -3.44142977	     -4.08382103	     -0.81313048	     -1.46035019	    -10.69836252	     13.61753458	      0.34679951	     -2.90576611	     -1.07271001	     -5.78899168
      0.06000000	      1.93610892	     -0.80666984	      1.93432931	      0.64200697	      1.08163860	     -0.33344662	     -3.65942094	      1.48277761	     -7.74895103	     -9.97415141	     11.48795239	     -3.44827754	     -4.03464980	     -0.83394150	     -1.50516211	    -10.73053925	     13.61480421	      0.35792945	     -2.92612851	     -1.05530946	     -5.77038575
      0.07000000	      1.92757402	     -0.80500065	      1.93654246	      0.64188769	      1.08164497	     -0.33335348	     -3.64236239	      1.48623065	     -7.74254869	     -9.97651266	     11.48527467	     -3.44914757	     -4.01562611	     -0.83700905	     -1.50124756	    -10.73520472	     13.61186284	      0.36040648	     -2.95850923	     -1.05851829	     -5.76108635
      0.08000000	      1.91973140	     -0.80418605	      1.93448890	      0.64175884	      1.08165296	     -0.33326227	     -3.62188905	      1.48903807	     -7.74076974	     -9.98474508	     11.47970123	     -3.45061635	     -3.99503080	     -0.84057797	     -1.50665701	    -10.74364067	     13.60486277	      0.36361777	     -2.99142707	     -1.05821281	     -5.75134914
      0.09000000	      1.91126135	     -0.80209564	      1.93191535	      0.64166377	      1.08166016	     -0.33317057	     -3.61058172	      1.49133709	     -7.74271688	     -9.97709635	     11.47977213	     -3.45068976	     -3.98393756	     -0.84238087	     -1.50898583	    -10.73591618	     13.60445522	      0.36400419	     -3.01591531	     -1.05904589	     -5.75028459
      0.10000000	      1.90799327	     -0.80261416	      1.93038827	      0.64150894	      1.08167348	     -0.33307157	     -3.58504190	      1.49538267	     -7.74012917	    -10.00187925	     11.46954104	     -3.45264087	     -3.95949258	     -0.84897223	     -1.52217900	    -10.75796666	     13.59018607	      0.36805249	     -3.05480004	     -1.05989691	     -5.73427288
      0.11000000	      1.90062179	     -0.80062917	      1.92623054	      0.64141965	      1.08168021	     -0.33297701	     -3.57466375	      1.49767506	     -7.74224768	     -9.99500554	     11.46979922	     -3.45275826	     -3.94936808	     -0.85080497	     -1.52501705	    -10.75137419	     13.58980924	      0.36846560	     -3.07595388	     -1.06076318	     -5.73357237
      0.12000000	      1.88081214	     -0.80416572	      1.90511288	      0.64128618	      1.08166590	     -0.33285023	     -3.52582928	      1.50212342	     -7.73593838	    -10.02969266	     11.46529743	     -3.45988581	     -3.90615763	     -0.86066674	     -1.58592481	    -10.77910513	     13.57804794	      0.38099145	     -3.08734325	     -1.05826750	     -5.70304663
      0.13000000	      1.87550386	     -0.80226081	      1.90124598	      0.64120630	      1.08167460	     -0.33274602	     -3.51739396	      1.50527567	     -7.73603225	    -10.02436567	     11.46552017	     -3.45991177	     -3.89766267	     -0.86328014	     -1.58509963	    -10.77479942	     13.57805610	      0.38139692	     -3.10521285	     -1.06149834	     -5.70295700
      0.14000000	      1.87415526	     -0.80173894	      1.90023125	      0.64109477	      1.08168670	     -0.33263883	     -3.50221345	      1.50984252	     -7.72606551	    -10.03880015	     11.46116398	     -3.46098519	     -3.88167604	     -0.86847251	     -1.58318368	    -10.78973147	     13.57169477	      0.38464237	     -3.13077875	     -1.06579737	     -5.69591492
      0.15000000	      1.86976496	     -0.80011098	      1.89456018	      0.64102131	      1.08169519	     -0.33253353	     -3.49440582	      1.51289386	     -7.72739683	    -10.03424125	     11.46133204	     -3.46109965	     -3.87453034	     -0.87126664	     -1.58433918	    -10.78646458	     13.57101908	      0.38524096	     -3.14539611	     -1.06844922	     -5.69639360
      0.16000000	      1.86743070	     -0.80164722	      1.88704198	      0.64090659	      1.08170563	     -0.33241952	     -3.47459680	      1.51837623	     -7.72023186	    -10.05405733	     11.45602500	     -3.46310143	     -3.85621140	     -0.87890572	     -1.59957012	    -10.80401307	     13.55796189	      0.39223748	     -3.16586661	     -1.06921558	     -5.68878417
      0.17000000	      1.86393429	     -0.80012298	      1.88352318	      0.64083101	      1.08171463	     -0.33231454	     -3.46810972	      1.52179903	     -7.72136447	    -10.04932819	     11.45644905	     -3.46312809	     -3.85040615	     -0.88245156	     -1.60185093	    -10.79939871	     13.55770165	      0.39292697	     -3.17638699	     -1.07324072	     -5.68905054
      0.18000000	      1.86118896	     -0.79881848	      1.88119461	      0.64074531	      1.08172593	     -0.33220875	     -3.46131063	      1.52562890	     -7.72173380	    -10.04621046	     11.45632270	     -3.46309884	     -3.84421406	     -0.88668456	     -1.60502683	    -10.79539796	     13.55644738	      0.39392942	     -3.18701745	     -1.07780758	     -5.68906552
